<svg xmlns="http://www.w3.org/2000/svg" width="32" height="32" viewBox="0 0 256 256"><defs><linearGradient id="g" x1="-.828%" x2="57.636%" y1="7.652%" y2="78.411%"><stop offset="0%" stop-color="#41D1FF"/><stop offset="100%" stop-color="#BD34FE"/></linearGradient><linearGradient id="o" x1="43.376%" x2="50.316%" y1="2.242%" y2="89.03%"><stop offset="0%" stop-color="#FFEA83"/><stop offset="8.333%" stop-color="#FFDD35"/><stop offset="100%" stop-color="#FFA800"/></linearGradient></defs><path fill="url(#g)" d="M255.153 37.938L134.897 252.976c-2.483 4.512-8.835 4.466-11.257-.083L.875 37.83c-2.755-5.146 2.44-10.973 7.85-8.71l118.214 49.301a6 6 0 004.822-.155l115.694-49.15c5.378-2.283 10.61 3.465 7.924 8.638z"/><path fill="url(#o)" d="M185.432.063L96.44 34.963a4 4 0 00-.269 7.347l31.314 14.643a8 8 0 006.372.116L184.95 32.11a4 4 0 015.25 5.374l-61.362 138.82c-1.92 4.346-8.093 3.387-8.451-1.32l-2.873-37.707a8 8 0 00-4.613-6.654L89.09 117.95c-4.5-2.2-3.67-8.757 1.263-10.066L128 98.286a8 8 0 005.703-4.672L193.2 3.548c1.783-3.793-1.77-7.937-5.959-6.89z"/></svg>